{"glyphs":{":":{"x_min":0,"x_max":146,"ha":146,"o":"m 25 412 q 25 430 40 442 q 54 454 74 454 q 94 454 108 442 q 122 430 122 412 q 122 394 108 381 q 94 368 74 368 q 54 368 40 381 q 25 394 25 412 z m 25 37 q 25 55 40 68 q 54 80 74 80 q 93 80 108 68 q 122 55 122 37 q 122 19 108 6 q 94 -7 74 -7 q 54 -7 40 6 q 25 19 25 37 z"},"$":{"x_min":0,"x_max":277,"ha":277,"o":"m 181 296 q 181 314 179 323 q 177 332 169 336 l 169 71 q 181 82 181 126 l 181 296 z m 95 458 q 95 435 98 426 q 100 416 108 412 l 108 678 q 100 672 98 660 q 95 648 95 625 l 95 458 z m 28 623 q 28 679 46 708 q 65 736 108 746 l 108 801 l 169 801 l 169 746 q 212 735 231 707 q 250 679 250 623 l 250 553 l 181 553 l 181 625 q 181 648 178 660 q 176 671 169 678 l 169 403 q 213 396 232 372 q 250 347 250 296 l 250 128 q 250 71 231 42 q 212 13 169 3 l 169 -56 l 108 -56 l 108 3 q 65 13 46 42 q 28 71 28 128 l 28 201 l 95 201 l 95 126 q 95 103 98 90 q 100 77 108 71 l 108 346 q 63 352 46 376 q 28 400 28 456 z"},"?":{"x_min":0,"x_max":247,"ha":247,"o":"m 127 82 q 171 82 171 38 q 171 -5 127 -5 q 83 -5 83 38 q 83 82 127 82 z m 236 630 l 236 306 q 236 202 160 186 l 160 130 l 93 130 l 93 242 q 117 242 132 244 q 147 247 156 254 q 164 260 167 272 q 170 284 170 304 l 170 632 q 170 694 127 694 q 103 694 94 681 q 86 668 86 632 l 86 549 l 18 549 l 18 630 q 18 755 127 755 q 236 755 236 630 z"},"<":{"x_min":0,"x_max":869,"ha":869,"o":"m 739 586 l 739 510 l 252 314 l 739 118 l 739 43 l 130 292 l 130 337 z"},"'":{"x_min":0,"x_max":153,"ha":153,"o":"m 40 732 l 113 732 l 113 425 l 40 425 z"},"=":{"x_min":0,"x_max":869,"ha":869,"o":"m 126 435 l 743 435 l 743 365 l 126 365 z m 126 263 l 743 263 l 743 193 l 126 193 z"},"a":{"x_min":0,"x_max":298,"ha":298,"o":"m 177 742 l 284 1 l 217 1 l 176 284 l 110 284 l 69 1 l 1 1 l 43 284 l 0 284 l 0 344 l 51 344 l 110 742 z m 167 344 l 143 510 l 119 344 z"},"L":{"x_min":0,"x_max":242,"ha":242,"o":"m 30 0 l 30 749 l 97 749 l 97 62 l 250 62 l 250 0 z"},"3":{"x_min":0,"x_max":277,"ha":277,"o":"m 28 559 l 28 629 q 28 695 54 726 q 81 756 138 756 q 250 756 250 629 l 250 460 q 250 403 219 376 q 250 351 250 288 l 250 120 q 250 -7 138 -7 q 81 -7 54 24 q 28 54 28 120 l 28 194 l 95 194 l 95 118 q 95 80 105 67 q 115 54 138 54 q 162 54 172 68 q 181 82 181 118 l 181 286 q 181 305 179 316 q 177 328 172 334 q 166 340 156 342 q 146 344 129 344 l 32 344 l 32 405 l 129 405 q 146 405 156 407 q 166 409 172 416 q 177 422 179 434 q 181 445 181 464 l 181 631 q 181 668 172 681 q 163 694 138 694 q 115 694 105 682 q 95 669 95 631 l 95 559 z"},"J":{"x_min":0,"x_max":267,"ha":267,"o":"m 240 749 l 240 120 q 240 -7 129 -7 q 72 -7 45 24 q 18 55 18 120 l 18 194 l 87 194 l 87 118 q 87 80 96 67 q 105 54 129 54 q 153 54 163 68 q 173 82 173 118 l 173 749 z"},"V":{"x_min":0,"x_max":272,"ha":272,"o":"m -1 749 l 68 749 l 136 273 l 204 749 l 273 749 l 165 0 l 107 0 z"},"\"":{"x_min":0,"x_max":281,"ha":281,"o":"m 42 732 l 115 732 l 115 425 l 42 425 z m 166 732 l 239 732 l 239 425 l 166 425 z"},"7":{"x_min":0,"x_max":277,"ha":277,"o":"m 23 0 l 181 686 l 37 686 l 37 749 l 263 749 l 90 0 z"},"S":{"x_min":0,"x_max":277,"ha":277,"o":"m 250 559 l 181 559 l 181 631 q 181 668 172 681 q 163 694 138 694 q 115 694 105 682 q 95 669 95 631 l 95 396 q 95 379 96 370 q 97 360 102 355 q 107 350 118 348 q 130 346 150 344 q 205 339 228 314 q 250 288 250 233 l 250 120 q 250 -7 138 -7 q 81 -7 54 24 q 28 54 28 120 l 28 194 l 95 194 l 95 118 q 95 80 105 67 q 115 54 138 54 q 162 54 172 68 q 181 82 181 118 l 181 232 q 181 260 173 268 q 165 277 137 279 q 104 282 82 288 q 61 294 49 306 q 37 319 32 340 q 28 360 28 393 l 28 629 q 28 695 54 726 q 81 756 138 756 q 250 756 250 629 z"},"}":{"x_min":0,"x_max":528,"ha":528,"o":"m 85 752 l 121 752 q 176 752 210 740 q 244 729 263 704 q 282 680 288 641 q 295 602 295 548 l 295 433 q 295 364 318 338 q 342 311 401 311 q 407 311 410 312 q 412 312 419 313 q 421 313 426 314 q 430 314 432 314 l 433 239 q 426 239 421 240 q 416 240 411 240 l 403 240 q 373 240 352 234 q 331 228 318 214 q 306 199 300 176 q 295 152 295 118 l 295 4 q 295 -51 288 -90 q 282 -128 263 -152 q 244 -177 210 -188 q 176 -200 121 -200 l 85 -200 l 85 -128 l 123 -128 q 154 -128 173 -123 q 192 -118 202 -105 q 212 -92 215 -70 q 218 -48 218 -15 l 218 102 q 218 174 232 214 q 247 254 282 276 q 247 298 232 338 q 218 377 218 451 l 218 567 q 218 600 215 622 q 212 644 202 657 q 192 670 173 676 q 154 681 123 681 l 85 681 z"},"Z":{"x_min":0,"x_max":263,"ha":263,"o":"m 31 0 l 14 23 l 169 686 l 16 686 l 16 749 l 231 749 l 249 725 l 92 62 l 247 62 l 247 0 z"},"x":{"x_min":0,"x_max":272,"ha":272,"o":"m -4 0 l 100 383 l -5 749 l 69 749 l 136 500 l 207 749 l 277 749 l 172 377 l 277 0 l 203 0 l 135 252 l 66 0 z"},")":{"x_min":0,"x_max":153,"ha":153,"o":"m -3 53 q 16 54 28 58 q 39 61 46 68 q 53 75 56 87 q 58 99 58 118 l 58 631 q 58 668 46 680 q 34 693 -3 695 l -3 757 q 70 753 99 724 q 128 695 128 629 l 128 120 q 128 54 99 25 q 70 -4 -3 -8 z"},"&":{"x_min":0,"x_max":286,"ha":286,"o":"m 181 289 l 149 289 q 132 289 122 287 q 111 285 106 278 q 100 272 98 260 q 96 249 96 230 l 96 118 q 96 81 106 68 q 116 54 139 54 q 163 54 172 68 q 181 82 181 118 z m 251 289 l 251 120 q 251 -7 139 -7 q 82 -7 56 24 q 29 54 29 120 l 29 233 q 29 265 36 286 q 42 306 59 319 q 42 333 36 354 q 29 375 29 406 l 29 621 q 29 657 36 682 q 43 706 58 721 q 74 736 100 742 q 126 749 164 749 l 216 749 l 216 686 l 164 686 q 143 686 130 684 q 116 681 108 674 q 101 668 98 656 q 96 643 96 623 l 96 408 q 96 389 98 378 q 100 366 106 360 q 111 354 122 352 q 132 350 149 350 l 181 350 l 181 455 l 251 455 l 251 350 l 299 350 l 299 289 z"},"_":{"x_min":0,"x_max":528,"ha":528,"o":"m -3 -165 l 531 -165 l 531 -234 l -3 -234 z"},"v":{"x_min":0,"x_max":272,"ha":272,"o":"m -1 749 l 68 749 l 136 273 l 204 749 l 273 749 l 165 0 l 107 0 z"},"O":{"x_min":0,"x_max":277,"ha":277,"o":"m 181 631 q 181 668 172 681 q 163 694 138 694 q 115 694 105 682 q 95 669 95 631 l 95 118 q 95 81 105 68 q 115 54 138 54 q 162 54 172 68 q 181 82 181 118 z m 28 629 q 28 695 54 726 q 81 756 138 756 q 250 756 250 629 l 250 120 q 250 -7 138 -7 q 81 -7 54 24 q 28 54 28 120 z"},"(":{"x_min":0,"x_max":153,"ha":153,"o":"m 156 -8 q 84 -4 55 26 q 26 55 26 120 l 26 629 q 26 694 55 724 q 84 753 156 757 l 156 695 q 137 694 125 691 q 113 688 106 681 q 99 674 96 662 q 94 650 94 631 l 94 118 q 94 99 96 87 q 99 75 106 68 q 113 61 125 58 q 137 54 156 53 z"},"C":{"x_min":0,"x_max":267,"ha":267,"o":"m 250 559 l 181 559 l 181 631 q 181 668 172 681 q 163 694 138 694 q 115 694 105 682 q 95 669 95 631 l 95 118 q 95 80 105 67 q 115 54 138 54 q 162 54 172 68 q 181 82 181 118 l 181 194 l 250 194 l 250 120 q 250 -7 138 -7 q 81 -7 54 24 q 28 54 28 120 l 28 629 q 28 695 54 726 q 81 756 138 756 q 250 756 250 629 z"},"W":{"x_min":0,"x_max":436,"ha":436,"o":"m 406 749 l 406 120 q 406 -7 294 -7 q 246 -7 218 18 q 204 7 184 0 q 164 -7 141 -7 q 84 -7 57 24 q 30 54 30 120 l 30 749 l 98 749 l 98 118 q 98 80 108 67 q 118 54 141 54 q 165 54 174 68 q 183 82 183 118 l 183 749 l 253 749 l 253 118 q 253 80 262 67 q 270 54 294 54 q 318 54 328 68 q 338 82 338 118 l 338 749 z"},"A":{"x_min":0,"x_max":294,"ha":294,"o":"m 110 350 l 195 350 l 195 631 q 195 668 185 681 q 175 694 151 694 q 127 694 118 682 q 110 669 110 631 z m 41 0 l 41 289 l -9 289 l -9 350 l 41 350 l 41 629 q 41 695 68 726 q 94 756 151 756 q 209 756 236 725 q 263 694 263 629 l 263 0 l 195 0 l 195 289 l 110 289 l 110 0 z"},"f":{"x_min":0,"x_max":277,"ha":277,"o":"m 110 289 l 110 0 l 41 0 l 41 289 l -9 289 l -9 350 l 41 350 l 41 749 l 259 749 l 259 686 l 110 686 l 110 350 l 259 350 l 259 289 z"},"Q":{"x_min":0,"x_max":277,"ha":277,"o":"m 99 85 q 103 68 112 61 q 121 54 139 54 l 143 54 l 99 85 z m 181 631 q 181 668 172 681 q 164 694 139 694 q 116 694 106 682 q 96 669 96 631 l 96 118 q 96 108 96 100 q 97 93 98 87 l 134 136 l 180 102 q 181 107 181 118 z m 28 629 q 28 695 55 726 q 82 756 139 756 q 251 756 251 629 l 251 120 q 251 79 244 58 l 290 25 l 256 -25 l 204 11 q 177 -7 139 -7 q 82 -7 55 24 q 28 54 28 120 z"},"w":{"x_min":0,"x_max":423,"ha":423,"o":"m 249 744 l 283 434 l 295 281 l 342 744 l 403 744 l 335 4 l 273 4 l 217 486 l 161 4 l 99 4 l 31 744 l 92 744 l 135 283 l 151 436 l 184 744 z"},"E":{"x_min":0,"x_max":281,"ha":281,"o":"m 110 289 l 110 62 l 259 62 l 259 0 l 41 0 l 41 289 l -9 289 l -9 350 l 41 350 l 41 749 l 259 749 l 259 686 l 110 686 l 110 350 l 259 350 l 259 289 z"},"s":{"x_min":0,"x_max":277,"ha":277,"o":"m 250 559 l 181 559 l 181 631 q 181 668 172 681 q 163 694 138 694 q 115 694 105 682 q 95 669 95 631 l 95 396 q 95 379 96 370 q 97 360 102 355 q 107 350 118 348 q 130 346 150 344 q 205 339 228 314 q 250 288 250 233 l 250 120 q 250 -7 138 -7 q 81 -7 54 24 q 28 54 28 120 l 28 194 l 95 194 l 95 118 q 95 80 105 67 q 115 54 138 54 q 162 54 172 68 q 181 82 181 118 l 181 232 q 181 260 173 268 q 165 277 137 279 q 104 282 82 288 q 61 294 49 306 q 37 319 32 340 q 28 360 28 393 l 28 629 q 28 695 54 726 q 81 756 138 756 q 250 756 250 629 z"},">":{"x_min":0,"x_max":869,"ha":869,"o":"m 130 586 l 739 337 l 739 292 l 130 43 l 130 118 l 615 314 l 130 510 z"},"l":{"x_min":0,"x_max":242,"ha":242,"o":"m 30 0 l 30 749 l 97 749 l 97 62 l 250 62 l 250 0 z"},"8":{"x_min":0,"x_max":277,"ha":277,"o":"m 181 631 q 181 668 172 681 q 163 694 138 694 q 115 694 105 682 q 95 669 95 631 l 95 469 q 95 432 105 418 q 115 405 138 405 q 162 405 172 418 q 181 432 181 469 z m 181 280 q 181 317 172 330 q 162 344 138 344 q 115 344 105 330 q 95 317 95 280 l 95 118 q 95 81 105 68 q 115 54 138 54 q 162 54 172 68 q 181 82 181 118 z m 250 471 q 250 403 221 374 q 250 345 250 278 l 250 120 q 250 -7 138 -7 q 81 -7 54 24 q 28 54 28 120 l 28 278 q 28 313 34 336 q 40 360 54 375 q 40 389 34 412 q 28 436 28 471 l 28 629 q 28 695 54 726 q 81 756 138 756 q 250 756 250 629 z"},"\\":{"x_min":0,"x_max":246,"ha":246,"o":"m 210 -92 l -16 756 l 55 756 l 281 -92 z"},"e":{"x_min":0,"x_max":281,"ha":281,"o":"m 110 289 l 110 62 l 259 62 l 259 0 l 41 0 l 41 289 l -9 289 l -9 350 l 41 350 l 41 749 l 259 749 l 259 686 l 110 686 l 110 350 l 259 350 l 259 289 z"},"b":{"x_min":0,"x_max":294,"ha":294,"o":"m 110 289 l 110 62 l 142 62 q 159 62 170 64 q 180 66 186 72 q 191 78 193 90 q 195 101 195 120 l 195 230 q 195 249 193 260 q 191 272 186 278 q 180 285 170 287 q 159 289 142 289 z m 110 686 l 110 350 l 142 350 q 159 350 170 352 q 180 354 186 360 q 191 366 193 378 q 195 389 195 408 l 195 629 q 195 648 193 660 q 191 671 186 677 q 180 683 170 684 q 159 686 142 686 z m -9 350 l 41 350 l 41 749 l 149 749 q 180 749 202 742 q 224 736 238 721 q 251 706 257 681 q 263 656 263 619 l 263 406 q 263 345 230 319 q 263 293 263 233 l 263 118 q 263 58 236 29 q 208 0 149 0 l 41 0 l 41 289 l -9 289 z"},"%":{"x_min":0,"x_max":426,"ha":426,"o":"m 311 79 q 311 63 313 58 q 315 52 320 52 q 331 52 331 65 l 331 69 q 331 71 332 74 q 332 76 332 79 l 332 360 q 332 365 331 368 q 331 387 320 387 q 315 387 313 382 q 311 376 311 360 z m 116 670 q 116 685 114 690 q 111 696 105 696 q 94 696 94 685 l 94 390 q 94 374 96 369 q 99 364 105 364 q 111 364 114 369 q 116 374 116 390 z m 30 675 q 30 756 105 756 q 179 756 179 675 l 179 385 l 179 375 l 327 756 l 395 756 l 267 427 q 288 446 322 446 q 397 446 397 365 l 397 75 q 397 -7 322 -7 q 246 -7 246 75 l 246 365 l 246 372 l 99 -7 l 30 -7 l 158 321 q 140 304 105 304 q 30 304 30 385 z"},"m":{"x_min":0,"x_max":436,"ha":436,"o":"m 30 0 l 30 629 q 30 695 57 726 q 84 756 141 756 q 187 756 218 731 q 246 756 294 756 q 406 756 406 629 l 406 0 l 338 0 l 338 631 q 338 668 328 681 q 318 694 294 694 q 270 694 262 682 q 253 669 253 631 l 253 0 l 183 0 l 183 631 q 183 668 174 681 q 166 694 141 694 q 118 694 108 682 q 98 669 98 631 l 98 0 z"},"#":{"x_min":0,"x_max":804,"ha":804,"o":"m 341 319 l 433 319 l 468 421 l 377 421 z m 135 495 l 317 495 l 404 741 l 491 741 l 403 495 l 496 495 l 583 741 l 669 741 l 582 495 l 739 495 l 715 421 l 555 421 l 519 319 l 691 319 l 667 245 l 494 245 l 408 1 l 321 1 l 408 245 l 315 245 l 228 1 l 141 1 l 228 245 l 65 245 l 88 319 l 253 319 l 291 421 l 112 421 z"},",":{"x_min":0,"x_max":146,"ha":146,"o":"m 41 -90 l -17 -65 l 78 124 l 134 96 z"},"n":{"x_min":0,"x_max":273,"ha":273,"o":"m 39 742 l 104 742 l 191 324 l 191 742 l 258 742 q 257 742 260 0 l 192 0 l 107 405 l 108 0 l 40 0 l 39 728 z"},"h":{"x_min":0,"x_max":294,"ha":294,"o":"m 41 0 l 41 289 l -9 289 l -9 350 l 41 350 l 41 749 l 110 749 l 110 350 l 195 350 l 195 749 l 263 749 l 263 0 l 195 0 l 195 289 l 110 289 l 110 0 z"},"z":{"x_min":0,"x_max":263,"ha":263,"o":"m 31 0 l 14 23 l 169 686 l 16 686 l 16 749 l 231 749 l 249 725 l 92 62 l 247 62 l 247 0 z"},"B":{"x_min":0,"x_max":294,"ha":294,"o":"m 110 289 l 110 62 l 142 62 q 159 62 170 64 q 180 66 186 72 q 191 78 193 90 q 195 101 195 120 l 195 230 q 195 249 193 260 q 191 272 186 278 q 180 285 170 287 q 159 289 142 289 z m 110 686 l 110 350 l 142 350 q 159 350 170 352 q 180 354 186 360 q 191 366 193 378 q 195 389 195 408 l 195 629 q 195 648 193 660 q 191 671 186 677 q 180 683 170 684 q 159 686 142 686 z m -9 350 l 41 350 l 41 749 l 149 749 q 180 749 202 742 q 224 736 238 721 q 251 706 257 681 q 263 656 263 619 l 263 406 q 263 345 230 319 q 263 293 263 233 l 263 118 q 263 58 236 29 q 208 0 149 0 l 41 0 l 41 289 l -9 289 z"},"K":{"x_min":0,"x_max":324,"ha":324,"o":"m 111 749 l 111 350 l 144 350 q 161 350 171 352 q 181 354 186 360 q 192 366 194 378 q 196 389 196 408 l 196 749 l 264 749 l 264 406 q 264 345 232 319 q 264 293 264 233 l 264 120 q 264 102 266 90 q 269 79 276 72 q 283 66 296 64 q 308 62 328 62 l 328 0 l 306 0 q 196 0 196 118 l 196 230 q 196 249 194 260 q 192 272 186 278 q 181 285 170 287 q 160 289 144 289 l 111 289 l 111 0 l 42 0 l 42 289 l -8 289 l -8 350 l 42 350 l 42 749 z"},"R":{"x_min":0,"x_max":324,"ha":324,"o":"m 196 629 q 196 648 194 660 q 192 671 186 677 q 181 683 170 684 q 160 686 144 686 l 111 686 l 111 350 l 144 350 q 161 350 171 352 q 181 354 186 360 q 192 366 194 378 q 196 389 196 408 z m 150 749 q 181 749 203 742 q 225 736 238 721 q 252 706 258 681 q 264 656 264 619 l 264 406 q 264 345 232 319 q 264 293 264 233 l 264 120 q 264 102 266 90 q 269 79 276 72 q 283 66 296 64 q 308 62 328 62 l 328 0 l 306 0 q 196 0 196 118 l 196 230 q 196 249 194 260 q 192 272 186 278 q 181 285 170 287 q 160 289 144 289 l 111 289 l 111 0 l 42 0 l 42 289 l -8 289 l -8 350 l 42 350 l 42 749 z"},"T":{"x_min":0,"x_max":239,"ha":239,"o":"m 85 0 l 85 686 l 4 686 l 4 749 l 235 749 l 235 686 l 154 686 l 154 0 z"},"P":{"x_min":0,"x_max":288,"ha":288,"o":"m 110 686 l 110 282 l 142 282 q 159 282 170 284 q 180 286 186 292 q 191 298 193 310 q 195 321 195 340 l 195 629 q 195 648 193 660 q 191 671 186 677 q 180 683 170 684 q 159 686 142 686 z m 149 749 q 180 749 202 742 q 224 736 238 721 q 251 706 257 681 q 263 656 263 619 l 263 338 q 263 278 236 250 q 208 221 149 221 l 110 221 l 110 0 l 41 0 l 41 221 l -9 221 l -9 282 l 41 282 l 41 749 z"},"|":{"x_min":0,"x_max":528,"ha":528,"o":"m 227 795 l 301 795 l 301 -234 l 227 -234 z"},"t":{"x_min":0,"x_max":239,"ha":239,"o":"m 85 0 l 85 686 l 4 686 l 4 749 l 235 749 l 235 686 l 154 686 l 154 0 z"},"M":{"x_min":0,"x_max":436,"ha":436,"o":"m 30 0 l 30 629 q 30 695 57 726 q 84 756 141 756 q 187 756 218 731 q 246 756 294 756 q 406 756 406 629 l 406 0 l 338 0 l 338 631 q 338 668 328 681 q 318 694 294 694 q 270 694 262 682 q 253 669 253 631 l 253 0 l 183 0 l 183 631 q 183 668 174 681 q 166 694 141 694 q 118 694 108 682 q 98 669 98 631 l 98 0 z"},"g":{"x_min":0,"x_max":277,"ha":277,"o":"m 181 559 l 181 631 q 181 668 172 681 q 163 694 138 694 q 115 694 105 682 q 95 669 95 631 l 95 118 q 95 80 105 67 q 115 54 138 54 q 162 54 172 68 q 181 82 181 118 l 181 289 l 130 289 l 130 350 l 250 350 l 250 120 q 250 -7 138 -7 q 81 -7 54 24 q 28 54 28 120 l 28 629 q 28 695 54 726 q 81 756 138 756 q 250 756 250 629 l 250 559 z"},"j":{"x_min":0,"x_max":267,"ha":267,"o":"m 240 749 l 240 120 q 240 -7 129 -7 q 72 -7 45 24 q 18 55 18 120 l 18 194 l 87 194 l 87 118 q 87 80 96 67 q 105 54 129 54 q 153 54 163 68 q 173 82 173 118 l 173 749 z"},"i":{"x_min":0,"x_max":173,"ha":173,"o":"m 121 749 l 121 0 l 53 0 l 53 749 z"},"y":{"x_min":0,"x_max":263,"ha":263,"o":"m 251 745 l 251 397 q 251 371 244 350 q 236 330 225 316 q 214 301 200 293 q 187 285 174 284 l 174 0 l 107 0 l 107 285 q 69 292 50 324 q 32 355 32 403 l 32 745 l 99 745 l 99 403 q 99 343 140 343 q 183 343 183 399 l 183 745 z"},"@":{"x_min":0,"x_max":1040,"ha":1040,"o":"m 629 369 q 611 451 532 451 q 493 451 463 432 q 433 412 414 381 q 394 350 384 312 q 374 273 374 235 q 374 184 397 158 q 420 131 462 131 q 511 131 548 162 q 586 194 599 248 z m 691 64 q 605 64 586 119 q 560 92 528 77 q 496 62 462 62 q 380 62 336 108 q 291 153 291 238 q 291 289 308 340 q 326 390 358 430 q 390 470 434 495 q 479 520 534 520 q 616 520 656 460 l 675 500 l 744 500 l 672 212 q 664 181 662 172 q 660 163 660 159 q 660 131 702 131 q 731 131 762 146 q 793 160 817 186 q 854 224 874 280 q 895 335 895 395 q 895 463 868 514 q 840 565 794 600 q 748 634 688 652 q 627 669 560 669 q 402 669 298 583 q 223 524 186 444 q 149 364 149 265 q 149 185 178 123 q 207 61 258 19 q 308 -23 376 -44 q 445 -66 524 -66 q 600 -66 680 -40 q 760 -15 834 35 l 867 -13 q 786 -73 702 -102 q 618 -131 529 -131 q 338 -131 219 -40 l 219 -41 q 68 77 68 273 q 68 354 92 426 q 117 499 167 559 q 239 646 340 692 q 440 737 564 737 q 642 737 715 714 q 788 692 841 652 q 905 601 938 536 q 972 470 972 394 q 972 309 940 239 q 909 169 849 122 q 774 64 691 64 z"},".":{"x_min":0,"x_max":146,"ha":146,"o":"m 25 37 q 25 55 40 68 q 54 80 74 80 q 93 80 108 68 q 122 55 122 37 q 122 19 108 6 q 94 -7 74 -7 q 54 -7 40 6 q 25 19 25 37 z"},"p":{"x_min":0,"x_max":288,"ha":288,"o":"m 110 686 l 110 350 l 142 350 q 159 350 170 352 q 180 354 186 360 q 191 366 193 378 q 195 389 195 408 l 195 629 q 195 648 193 660 q 191 671 186 677 q 180 683 170 684 q 159 686 142 686 z m 149 749 q 180 749 202 742 q 224 736 238 721 q 251 706 257 681 q 263 656 263 619 l 263 406 q 263 346 236 318 q 208 289 149 289 l 110 289 l 110 0 l 41 0 l 41 289 l -9 289 l -9 350 l 41 350 l 41 749 z"},"X":{"x_min":0,"x_max":272,"ha":272,"o":"m -4 0 l 100 383 l -5 749 l 69 749 l 136 500 l 207 749 l 277 749 l 172 377 l 277 0 l 203 0 l 135 252 l 66 0 z"},"*":{"x_min":0,"x_max":277,"ha":277,"o":"m 41 549 l 87 611 l 13 633 l 35 696 l 107 670 l 105 749 l 171 749 l 169 670 l 243 696 l 263 633 l 189 611 l 236 549 l 182 510 l 138 574 l 95 510 z"},"Y":{"x_min":0,"x_max":277,"ha":277,"o":"m 250 749 l 250 120 q 250 -7 138 -7 q 81 -7 54 24 q 28 54 28 120 l 28 194 l 95 194 l 95 118 q 95 80 105 67 q 115 54 138 54 q 162 54 172 68 q 181 82 181 118 l 181 285 q 170 280 158 278 q 147 276 134 276 q 28 276 28 404 l 28 749 l 95 749 l 95 402 q 95 364 105 351 q 115 338 138 338 q 162 338 172 352 q 181 365 181 402 l 181 749 z"},"c":{"x_min":0,"x_max":267,"ha":267,"o":"m 250 559 l 181 559 l 181 631 q 181 668 172 681 q 163 694 138 694 q 115 694 105 682 q 95 669 95 631 l 95 118 q 95 80 105 67 q 115 54 138 54 q 162 54 172 68 q 181 82 181 118 l 181 194 l 250 194 l 250 120 q 250 -7 138 -7 q 81 -7 54 24 q 28 54 28 120 l 28 629 q 28 695 54 726 q 81 756 138 756 q 250 756 250 629 z"},"!":{"x_min":0,"x_max":124,"ha":124,"o":"m 74 87 q 119 87 119 42 q 119 -2 74 -2 q 29 -2 29 42 q 29 87 74 87 z m 38 141 l 38 756 l 106 756 l 106 141 z"},"/":{"x_min":0,"x_max":246,"ha":246,"o":"m -35 -92 l 192 756 l 263 756 l 36 -92 z"},"[":{"x_min":0,"x_max":153,"ha":153,"o":"m 28 0 l 28 749 l 154 749 l 154 686 l 96 686 l 96 62 l 154 62 l 154 0 z"},"6":{"x_min":0,"x_max":277,"ha":277,"o":"m 95 118 q 95 81 105 68 q 115 54 138 54 q 162 54 172 68 q 181 82 181 118 l 181 349 q 181 385 172 399 q 164 413 142 413 q 117 413 106 398 q 95 383 95 349 z m 95 463 q 119 474 142 474 q 198 474 224 444 q 250 414 250 348 l 250 120 q 250 -7 138 -7 q 81 -7 54 24 q 28 54 28 120 l 28 629 q 28 695 54 726 q 81 756 138 756 q 250 756 250 629 l 250 555 l 181 555 l 181 631 q 181 668 172 681 q 163 694 138 694 q 115 694 105 682 q 95 669 95 631 z"},"r":{"x_min":0,"x_max":324,"ha":324,"o":"m 196 629 q 196 648 194 660 q 192 671 186 677 q 181 683 170 684 q 160 686 144 686 l 111 686 l 111 350 l 144 350 q 161 350 171 352 q 181 354 186 360 q 192 366 194 378 q 196 389 196 408 z m 150 749 q 181 749 203 742 q 225 736 238 721 q 252 706 258 681 q 264 656 264 619 l 264 406 q 264 345 232 319 q 264 293 264 233 l 264 120 q 264 102 266 90 q 269 79 276 72 q 283 66 296 64 q 308 62 328 62 l 328 0 l 306 0 q 196 0 196 118 l 196 230 q 196 249 194 260 q 192 272 186 278 q 181 285 170 287 q 160 289 144 289 l 111 289 l 111 0 l 42 0 l 42 289 l -8 289 l -8 350 l 42 350 l 42 749 z"},"2":{"x_min":0,"x_max":277,"ha":277,"o":"m 95 64 l 250 64 l 250 0 l 28 0 l 28 205 q 28 261 50 286 q 72 310 126 315 q 146 317 157 319 q 168 321 174 326 q 179 331 180 340 q 181 350 181 367 l 181 631 q 181 668 172 681 q 163 694 138 694 q 115 694 105 682 q 95 669 95 631 l 95 559 l 28 559 l 28 629 q 28 695 54 726 q 81 756 138 756 q 250 756 250 629 l 250 365 q 250 332 246 311 q 241 290 228 278 q 216 265 194 259 q 173 253 140 250 q 111 248 103 240 q 95 231 95 203 z"},"{":{"x_min":0,"x_max":528,"ha":528,"o":"m 444 752 l 444 681 l 407 681 q 375 681 356 676 q 337 670 327 657 q 317 644 314 622 q 310 600 310 567 l 310 451 q 310 419 308 392 q 306 366 299 344 q 292 322 280 306 q 267 289 245 276 q 267 263 280 246 q 292 229 299 207 q 306 185 308 159 q 310 133 310 102 l 310 -15 q 310 -48 314 -70 q 317 -92 327 -105 q 337 -118 356 -124 q 375 -129 407 -129 l 444 -129 l 444 -200 l 409 -200 q 353 -200 319 -188 q 285 -177 266 -152 q 246 -128 240 -90 q 233 -51 233 4 l 233 118 q 233 153 228 176 q 222 200 210 214 q 197 228 176 234 q 155 240 125 240 l 118 240 q 113 240 110 240 q 107 239 100 239 l 100 314 q 101 314 109 314 q 117 313 118 313 q 126 311 123 311 q 121 311 129 311 q 187 311 210 338 q 233 364 233 433 l 233 548 q 233 602 240 641 q 246 680 266 704 q 285 729 319 740 q 353 752 409 752 z"},"9":{"x_min":0,"x_max":277,"ha":277,"o":"m 181 631 q 181 668 172 681 q 163 694 138 694 q 115 694 105 682 q 95 669 95 631 l 95 400 q 95 364 104 350 q 113 336 135 336 q 159 336 170 351 q 181 366 181 400 z m 181 284 q 169 279 156 277 q 144 275 130 275 q 28 275 28 400 l 28 629 q 28 695 54 726 q 81 756 138 756 q 250 756 250 629 l 250 120 q 250 -7 138 -7 q 81 -7 54 24 q 28 54 28 120 l 28 194 l 95 194 l 95 118 q 95 80 105 67 q 115 54 138 54 q 162 54 172 68 q 181 82 181 118 z"}," ":{"x_min":0,"x_max":271,"ha":271,"o":""},"I":{"x_min":0,"x_max":173,"ha":173,"o":"m 121 749 l 121 0 l 53 0 l 53 749 z"},"H":{"x_min":0,"x_max":294,"ha":294,"o":"m 41 0 l 41 289 l -9 289 l -9 350 l 41 350 l 41 749 l 110 749 l 110 350 l 195 350 l 195 749 l 263 749 l 263 0 l 195 0 l 195 289 l 110 289 l 110 0 z"},"4":{"x_min":0,"x_max":277,"ha":277,"o":"m 160 279 l 160 685 l 73 279 z m 160 0 l 160 219 l 25 219 l 0 238 l 104 749 l 229 749 l 229 279 l 274 279 l 274 219 l 229 219 l 229 0 z"},"~":{"x_min":0,"x_max":869,"ha":869,"o":"m 781 326 q 666 247 575 247 q 554 247 534 251 q 515 255 492 263 q 479 267 462 272 q 445 277 416 283 q 375 300 345 308 q 315 315 295 315 q 277 315 257 310 q 237 305 212 294 q 188 283 158 264 q 128 246 89 219 l 89 302 q 200 383 295 383 q 329 383 364 373 q 400 363 438 347 l 437 347 q 483 331 518 322 q 552 313 575 313 q 593 313 613 318 q 633 323 658 334 q 683 345 713 364 q 743 382 781 408 z"},"D":{"x_min":0,"x_max":277,"ha":277,"o":"m 95 686 l 95 62 l 129 62 q 146 62 156 64 q 166 66 172 72 q 177 78 179 90 q 181 101 181 120 l 181 629 q 181 648 179 660 q 177 671 172 677 q 166 683 156 684 q 146 686 129 686 z m 28 0 l 28 749 l 136 749 q 167 749 188 743 q 210 737 224 722 q 237 707 244 682 q 250 657 250 619 l 250 118 q 250 0 136 0 z"},"0":{"x_min":0,"x_max":277,"ha":277,"o":"m 181 631 q 181 668 172 681 q 163 694 138 694 q 115 694 105 682 q 95 669 95 631 l 95 118 q 95 81 105 68 q 115 54 138 54 q 162 54 172 68 q 181 82 181 118 z m 28 629 q 28 695 54 726 q 81 756 138 756 q 250 756 250 629 l 250 120 q 250 -7 138 -7 q 81 -7 54 24 q 28 54 28 120 z"},"F":{"x_min":0,"x_max":277,"ha":277,"o":"m 110 289 l 110 0 l 41 0 l 41 289 l -9 289 l -9 350 l 41 350 l 41 749 l 259 749 l 259 686 l 110 686 l 110 350 l 259 350 l 259 289 z"},"`":{"x_min":0,"x_max":528,"ha":528,"o":"m 301 756 l 245 756 l 175 909 l 256 909 z"},"k":{"x_min":0,"x_max":324,"ha":324,"o":"m 111 749 l 111 350 l 144 350 q 161 350 171 352 q 181 354 186 360 q 192 366 194 378 q 196 389 196 408 l 196 749 l 264 749 l 264 406 q 264 345 232 319 q 264 293 264 233 l 264 120 q 264 102 266 90 q 269 79 276 72 q 283 66 296 64 q 308 62 328 62 l 328 0 l 306 0 q 196 0 196 118 l 196 230 q 196 249 194 260 q 192 272 186 278 q 181 285 170 287 q 160 289 144 289 l 111 289 l 111 0 l 42 0 l 42 289 l -8 289 l -8 350 l 42 350 l 42 749 z"},"u":{"x_min":0,"x_max":277,"ha":277,"o":"m 250 749 l 250 120 q 250 -7 138 -7 q 81 -7 54 24 q 28 54 28 120 l 28 749 l 95 749 l 95 118 q 95 80 105 67 q 115 54 138 54 q 162 54 172 68 q 181 82 181 118 l 181 749 z"},"]":{"x_min":0,"x_max":153,"ha":153,"o":"m 126 749 l 126 0 l -1 0 l -1 62 l 56 62 l 56 686 l -1 686 l -1 749 z"},"U":{"x_min":0,"x_max":277,"ha":277,"o":"m 250 749 l 250 120 q 250 -7 138 -7 q 81 -7 54 24 q 28 54 28 120 l 28 749 l 95 749 l 95 118 q 95 80 105 67 q 115 54 138 54 q 162 54 172 68 q 181 82 181 118 l 181 749 z"},"o":{"x_min":0,"x_max":277,"ha":277,"o":"m 181 631 q 181 668 172 681 q 163 694 138 694 q 115 694 105 682 q 95 669 95 631 l 95 118 q 95 81 105 68 q 115 54 138 54 q 162 54 172 68 q 181 82 181 118 z m 28 629 q 28 695 54 726 q 81 756 138 756 q 250 756 250 629 l 250 120 q 250 -7 138 -7 q 81 -7 54 24 q 28 54 28 120 z"},"N":{"x_min":0,"x_max":278,"ha":278,"o":"m 103 -1 l 34 -1 l 34 746 l 103 746 l 103 721 q 112 735 126 740 q 140 746 149 746 q 265 746 265 611 l 265 -1 l 193 -1 l 193 613 q 193 652 184 666 q 174 680 149 681 q 140 681 132 680 q 124 679 118 673 q 111 667 107 654 q 103 642 103 621 z"},"+":{"x_min":0,"x_max":869,"ha":869,"o":"m 126 348 l 401 348 l 401 628 l 469 628 l 469 348 l 743 348 l 743 280 l 469 280 l 469 0 l 401 0 l 401 280 l 126 280 z"},"G":{"x_min":0,"x_max":277,"ha":277,"o":"m 181 559 l 181 631 q 181 668 172 681 q 163 694 138 694 q 115 694 105 682 q 95 669 95 631 l 95 118 q 95 80 105 67 q 115 54 138 54 q 162 54 172 68 q 181 82 181 118 l 181 289 l 130 289 l 130 350 l 250 350 l 250 120 q 250 -7 138 -7 q 81 -7 54 24 q 28 54 28 120 l 28 629 q 28 695 54 726 q 81 756 138 756 q 250 756 250 629 l 250 559 z"},"q":{"x_min":0,"x_max":277,"ha":277,"o":"m 99 85 q 103 68 112 61 q 121 54 139 54 l 143 54 l 99 85 z m 181 631 q 181 668 172 681 q 164 694 139 694 q 116 694 106 682 q 96 669 96 631 l 96 118 q 96 108 96 100 q 97 93 98 87 l 134 136 l 180 102 q 181 107 181 118 z m 28 629 q 28 695 55 726 q 82 756 139 756 q 251 756 251 629 l 251 120 q 251 79 244 58 l 290 25 l 256 -25 l 204 11 q 177 -7 139 -7 q 82 -7 55 24 q 28 54 28 120 z"},"d":{"x_min":0,"x_max":277,"ha":277,"o":"m 95 686 l 95 62 l 129 62 q 146 62 156 64 q 166 66 172 72 q 177 78 179 90 q 181 101 181 120 l 181 629 q 181 648 179 660 q 177 671 172 677 q 166 683 156 684 q 146 686 129 686 z m 28 0 l 28 749 l 136 749 q 167 749 188 743 q 210 737 224 722 q 237 707 244 682 q 250 657 250 619 l 250 118 q 250 0 136 0 z"},"1":{"x_min":0,"x_max":277,"ha":277,"o":"m 173 749 l 173 0 l 103 0 l 103 749 z"},"5":{"x_min":0,"x_max":277,"ha":277,"o":"m 181 354 q 181 373 179 384 q 177 396 172 402 q 166 409 156 411 q 146 413 129 413 l 28 413 l 28 749 l 250 749 l 250 686 l 95 686 l 95 474 l 136 474 q 167 474 189 468 q 211 462 224 448 q 238 433 244 408 q 250 383 250 345 l 250 120 q 250 -7 138 -7 q 81 -7 54 24 q 28 54 28 120 l 28 194 l 95 194 l 95 118 q 95 80 105 67 q 115 54 138 54 q 162 54 172 68 q 181 82 181 118 z"}}}
